<mxfile host="app.diagrams.net" modified="2023-07-09T00:16:16.562Z" agent="Mozilla/5.0 (Macintosh; Intel Mac OS X 10_15_7) AppleWebKit/605.1.15 (KHTML, like Gecko) Version/16.4 Safari/605.1.15" version="21.6.1" etag="fp29o9eBzG6MaOUwy5AQ" type="github">
  <diagram name="Page-1" id="w-7wnPWW__VSV4ovLG3k">
    <mxGraphModel>
      <root>
        <mxCell id="0" />
        <mxCell id="1" parent="0" />
      </root>
    </mxGraphModel>
  </diagram>
</mxfile>
